# xmcd
#
# Track frame offsets: 
#        150
#        29063
#        49874
#        71608
#        96791
#        127755
#        151919
#        172642
#        197730
#        217486
#        239802
#        254824
#
# Disc length: 3702 seconds
#
# Revision: 0
# Processed by: cddbd v1.5.1PL0 Copyright (c) Steve Scherf et al.
# Submitted via: ExactAudioCopy v0.95a4
#
DISCID=b30e740c
DTITLE=Rose City Kings - Holler Out for More
DYEAR=2005
DGENRE=Rock
TTITLE0=Delta Hop
TTITLE1=Devil in My Shoes
TTITLE2=Biscuts n' Gravu
TTITLE3=Up On It
TTITLE4=Tequila Blues
TTITLE5=Babyelline
TTITLE6=Coffee Blues
TTITLE7=Way Down Low
TTITLE8=Put a Little Wiggle in it
TTITLE9=Double Belly Twist
TTITLE10=Sweet Nothings
TTITLE11=Reckless Sinner
EXTD=
EXTT0=
EXTT1=
EXTT2=
EXTT3=
EXTT4=
EXTT5=
EXTT6=
EXTT7=
EXTT8=
EXTT9=
EXTT10=
EXTT11=
PLAYORDER=
